<svg width="12" height="16" viewBox="0 0 12 16" fill="none" xmlns="http://www.w3.org/2000/svg">
<path d="M1.07498 15.55C0.853971 15.55 0.642009 15.4622 0.485729 15.3059C0.329449 15.1496 0.241652 14.9377 0.241652 14.7167L0.116652 2.5C0.106617 2.25195 0.145721 2.00437 0.231714 1.77149C0.317706 1.53861 0.448891 1.32503 0.617724 1.14303C0.786556 0.961036 0.989704 0.814212 1.21548 0.711006C1.44126 0.607801 1.68522 0.550251 1.93332 0.541667L9.92498 0.5C10.1734 0.504339 10.4186 0.557577 10.6464 0.656673C10.8743 0.755769 11.0803 0.898781 11.2529 1.07754C11.4255 1.2563 11.5612 1.46731 11.6522 1.69851C11.7432 1.92971 11.7877 2.17657 11.7833 2.425L11.9 14.6417C11.9014 14.7877 11.8644 14.9315 11.7928 15.0588C11.7211 15.186 11.6173 15.2922 11.4917 15.3667C11.365 15.4398 11.2213 15.4783 11.075 15.4783C10.9287 15.4783 10.785 15.4398 10.6583 15.3667L5.90832 12.7333L1.49998 15.425C1.36944 15.4979 1.22422 15.5406 1.07498 15.55V15.55ZM5.87499 10.925C6.01979 10.9253 6.1625 10.9595 6.29165 11.025L10.2167 13.2L10.1167 2.40833C10.1167 2.24167 10.0083 2.125 9.94165 2.13333L1.94165 2.20833C1.87498 2.20833 1.78332 2.31667 1.78332 2.48333L1.88332 13.2333L5.44998 11.0417C5.57952 10.9675 5.72574 10.9274 5.87499 10.925V10.925Z" fill="#2E1B0E"/>
</svg>
