<svg width="16" height="16" viewBox="0 0 16 16" fill="none" xmlns="http://www.w3.org/2000/svg">
<path d="M0.697934 2.53368L2.82794 0.405949C3.08794 0.145982 3.43595 0 3.80395 0C4.17195 0 4.51995 0.143982 4.77995 0.405949L7.07396 2.69566C7.33396 2.95563 7.47996 3.30559 7.47996 3.67354C7.47996 4.0435 7.33596 4.38945 7.07396 4.65142L5.28195 6.44519C5.69019 7.39625 6.27675 8.26036 7.00996 8.99088C7.74396 9.72878 8.60197 10.3107 9.55397 10.7227L11.346 8.92888C11.606 8.66892 11.954 8.52294 12.322 8.52294C12.5035 8.52226 12.6833 8.55782 12.8509 8.62753C13.0185 8.69724 13.1705 8.79969 13.298 8.92888L15.594 11.2186C15.854 11.4786 16 11.8285 16 12.1965C16 12.5664 15.856 12.9124 15.594 13.1744L13.466 15.3021C13.022 15.746 12.41 16 11.782 16C11.652 16 11.526 15.99 11.398 15.968C8.74997 15.5321 6.12196 14.1222 3.99995 12.0025C1.87994 9.87877 0.471931 7.25109 0.03193 4.60143C-0.0940704 3.84952 0.157931 3.07562 0.697934 2.53368ZM1.44994 4.36346C1.83994 6.72116 3.10794 9.07287 5.01795 10.9826C6.92796 12.8924 9.27797 14.1602 11.636 14.5502C11.932 14.6002 12.236 14.5002 12.452 14.2862L14.542 12.1965L12.326 9.97875L9.92997 12.3785L9.91197 12.3965L9.47997 12.2365C8.17011 11.7549 6.98063 10.9944 5.99397 10.0075C5.00732 9.02064 4.24708 7.83105 3.76595 6.52119L3.60595 6.08924L6.02196 3.67554L3.80595 1.45782L1.71594 3.54756C1.49994 3.76353 1.39994 4.06749 1.44994 4.36346Z" fill="black"/>
</svg>
