<svg width="22" height="22" viewBox="0 0 22 22" fill="none" xmlns="http://www.w3.org/2000/svg">
<path fill-rule="evenodd" clip-rule="evenodd" d="M5.41514 0.833578C5.57238 0.957072 5.74898 1.12322 5.95215 1.32389C6.38744 1.7523 6.89243 2.43869 7.32575 3.09762C7.76393 3.76393 8.16996 4.46537 8.39754 4.95358L8.39768 4.95389L8.39783 4.95421C8.52682 5.2316 8.64309 5.48297 8.72481 5.70329C8.8078 5.92702 8.87677 6.17311 8.87721 6.44167C8.87815 7.00381 8.57303 7.43767 8.27912 7.83785C8.19468 7.9528 8.12294 8.04701 8.06111 8.1282C7.92782 8.30322 7.84045 8.41795 7.7705 8.55065C7.70227 8.68008 7.68236 8.77353 7.71465 8.92397C7.76122 9.14089 7.96367 9.61573 8.35679 10.2369C8.73697 10.8377 9.2575 11.5153 9.87944 12.1352C10.5012 12.755 11.1681 13.2618 11.7568 13.6286C12.3635 14.0065 12.8307 14.2004 13.0539 14.248C13.2092 14.2812 13.3062 14.2604 13.4359 14.1929C13.5727 14.1217 13.6944 14.0288 13.8837 13.8843C13.9581 13.8275 14.0429 13.7627 14.1431 13.6882L14.1433 13.6881L14.1509 13.6825C14.5524 13.3841 14.9985 13.0527 15.564 13.0533C15.8434 13.0536 16.0942 13.1325 16.315 13.2226C16.5259 13.3087 16.7683 13.4308 17.0342 13.5647L17.0564 13.5759C17.5224 13.8109 18.2152 14.209 18.8859 14.6429C19.5448 15.0691 20.24 15.5667 20.6729 16.0029L20.6735 16.0035C20.8748 16.2068 21.0413 16.3834 21.1651 16.5406C21.285 16.6927 21.4165 16.8895 21.472 17.1344C21.5345 17.4101 21.4778 17.6396 21.4197 17.7987C21.3936 17.8705 21.3627 17.9393 21.3405 17.9886C21.337 17.9963 21.3337 18.0038 21.3304 18.0111C21.3098 18.0568 21.2918 18.0967 21.2727 18.1423L21.2723 18.1434L21.2718 18.1445C21.0759 18.6091 20.8375 19.0547 20.5599 19.4755L20.559 19.4768L20.5582 19.4781C20.0156 20.2932 19.5051 20.8259 18.7116 21.1955C18.2993 21.3875 17.7102 21.5815 16.7946 21.4673C15.9139 21.3575 14.7682 20.9676 13.2046 20.0918L13.2042 20.0916C10.7019 18.6883 8.96569 17.4784 6.72599 15.245C4.49286 13.0181 3.39522 11.5646 1.85761 8.77134C0.309666 5.95927 0.311884 4.22515 0.753939 3.28053C1.1251 2.4874 1.66307 1.97929 2.47555 1.4395L2.47715 1.43844L2.47875 1.43738C2.90006 1.16058 3.34584 0.922932 3.8105 0.72743L3.81203 0.726785L3.81356 0.726147C3.85955 0.707039 3.89977 0.689009 3.94575 0.668395C3.95297 0.665162 3.96032 0.661866 3.96786 0.658492C4.01727 0.63638 4.08618 0.605639 4.15788 0.579595C4.3168 0.521869 4.54577 0.465482 4.82104 0.52755C5.06578 0.582735 5.26267 0.713826 5.41514 0.833578ZM4.39081 2.11063C4.01166 2.27025 3.64788 2.46417 3.304 2.68997C2.61763 3.14617 2.32339 3.46572 2.11253 3.91631C1.9724 4.21575 1.71306 5.39819 3.17167 8.048C4.64062 10.7166 5.65236 12.056 7.78516 14.1828C9.91128 16.303 11.5322 17.4341 13.9375 18.7831C15.4095 19.6075 16.3638 19.902 16.9802 19.9788C17.5617 20.0514 17.8667 19.9343 18.0783 19.8357C18.5324 19.6242 18.8533 19.332 19.3088 18.648C19.5351 18.3047 19.7295 17.9414 19.8893 17.5625C19.9109 17.511 19.932 17.4633 19.9499 17.4235C19.8799 17.3405 19.7728 17.2258 19.608 17.0593C19.2964 16.7455 18.7182 16.3209 18.0711 15.9023C17.4358 15.4913 16.79 15.1216 16.3813 14.9154C16.0862 14.7668 15.8973 14.6722 15.7481 14.6113C15.603 14.5521 15.5608 14.5533 15.5624 14.5533C15.576 14.5533 15.5297 14.5268 15.0378 14.8922C14.9876 14.9295 14.9333 14.9712 14.8758 15.0152C14.6567 15.1832 14.3913 15.3866 14.1284 15.5235C13.7356 15.728 13.2846 15.831 12.741 15.715C12.2653 15.6136 11.6236 15.3128 10.9638 14.9018C10.286 14.4796 9.52851 13.9034 8.82046 13.1976C8.11255 12.4919 7.52356 11.7253 7.08929 11.0391C6.66795 10.3733 6.35103 9.71844 6.24806 9.2388C6.13083 8.69268 6.23771 8.24168 6.44358 7.85115C6.57625 7.59949 6.77457 7.33947 6.93779 7.12546C6.98581 7.06249 7.0308 7.00351 7.07018 6.94989C7.38547 6.5206 7.37807 6.45217 7.37726 6.44471C7.37724 6.44446 7.37722 6.44428 7.37722 6.44415C7.37719 6.4297 7.37386 6.37433 7.31845 6.22497C7.26179 6.07221 7.17358 5.8789 7.03777 5.58685C6.85231 5.1891 6.48877 4.55485 6.07247 3.9218C5.65134 3.28142 5.21699 2.70485 4.89959 2.39259L4.89906 2.39206L4.89852 2.39153C4.73104 2.2261 4.61586 2.11889 4.5327 2.0491C4.4923 2.06716 4.44361 2.08866 4.39081 2.11063Z" fill="#928F87"/>
</svg>
