<svg width="20" height="17" viewBox="0 0 20 17" fill="none" xmlns="http://www.w3.org/2000/svg">
<path d="M18.3334 6.49977H14.3417L10.6917 1.03311C10.5334 0.799772 10.2667 0.683105 10 0.683105C9.73337 0.683105 9.46671 0.799772 9.30837 1.04144L5.65837 6.49977H1.66671C1.20837 6.49977 0.833374 6.87477 0.833374 7.33311C0.833374 7.40811 0.841707 7.48311 0.866707 7.55811L2.98337 15.2831C3.17504 15.9831 3.81671 16.4998 4.58337 16.4998H15.4167C16.1834 16.4998 16.825 15.9831 17.025 15.2831L19.1417 7.55811L19.1667 7.33311C19.1667 6.87477 18.7917 6.49977 18.3334 6.49977ZM10 2.99977L12.3334 6.49977H7.66671L10 2.99977ZM15.4167 14.8331L4.59171 14.8414L2.75837 8.16644H17.25L15.4167 14.8331Z" fill="#2E1B0E"/>
</svg>
